<svg id="visual" viewBox="0 0 500 300" width="500" height="300" xmlns="http://www.w3.org/2000/svg" xmlns:xlink="http://www.w3.org/1999/xlink" version="1.1"><path d="M0 106L7.5 99.5C15 93 30 80 45.2 70.5C60.3 61 75.7 55 90.8 53.5C106 52 121 55 136.2 58.5C151.3 62 166.7 66 181.8 64.5C197 63 212 56 227.2 60C242.3 64 257.7 79 272.8 86.5C288 94 303 94 318.2 101C333.3 108 348.7 122 363.8 118C379 114 394 92 409.2 85.5C424.3 79 439.7 88 454.8 83C470 78 485 59 492.5 49.5L500 40L500 0L492.5 0C485 0 470 0 454.8 0C439.7 0 424.3 0 409.2 0C394 0 379 0 363.8 0C348.7 0 333.3 0 318.2 0C303 0 288 0 272.8 0C257.7 0 242.3 0 227.2 0C212 0 197 0 181.8 0C166.7 0 151.3 0 136.2 0C121 0 106 0 90.8 0C75.7 0 60.3 0 45.2 0C30 0 15 0 7.5 0L0 0Z" fill="#5345be"></path><path d="M0 178L7.5 171.5C15 165 30 152 45.2 149.5C60.3 147 75.7 155 90.8 161C106 167 121 171 136.2 174C151.3 177 166.7 179 181.8 182C197 185 212 189 227.2 183.5C242.3 178 257.7 163 272.8 156.5C288 150 303 152 318.2 161.5C333.3 171 348.7 188 363.8 190C379 192 394 179 409.2 172C424.3 165 439.7 164 454.8 162.5C470 161 485 159 492.5 158L500 157L500 38L492.5 47.5C485 57 470 76 454.8 81C439.7 86 424.3 77 409.2 83.5C394 90 379 112 363.8 116C348.7 120 333.3 106 318.2 99C303 92 288 92 272.8 84.5C257.7 77 242.3 62 227.2 58C212 54 197 61 181.8 62.5C166.7 64 151.3 60 136.2 56.5C121 53 106 50 90.8 51.5C75.7 53 60.3 59 45.2 68.5C30 78 15 91 7.5 97.5L0 104Z" fill="#6457db"></path><path d="M0 226L7.5 217.5C15 209 30 192 45.2 185C60.3 178 75.7 181 90.8 185C106 189 121 194 136.2 197C151.3 200 166.7 201 181.8 206C197 211 212 220 227.2 217.5C242.3 215 257.7 201 272.8 193.5C288 186 303 185 318.2 196C333.3 207 348.7 230 363.8 234C379 238 394 223 409.2 212C424.3 201 439.7 194 454.8 189.5C470 185 485 183 492.5 182L500 181L500 155L492.5 156C485 157 470 159 454.8 160.5C439.7 162 424.3 163 409.2 170C394 177 379 190 363.8 188C348.7 186 333.3 169 318.2 159.5C303 150 288 148 272.8 154.5C257.7 161 242.3 176 227.2 181.5C212 187 197 183 181.8 180C166.7 177 151.3 175 136.2 172C121 169 106 165 90.8 159C75.7 153 60.3 145 45.2 147.5C30 150 15 163 7.5 169.5L0 176Z" fill="#7569f8"></path><path d="M0 274L7.5 268C15 262 30 250 45.2 245C60.3 240 75.7 242 90.8 247C106 252 121 260 136.2 264C151.3 268 166.7 268 181.8 267.5C197 267 212 266 227.2 262C242.3 258 257.7 251 272.8 252C288 253 303 262 318.2 268C333.3 274 348.7 277 363.8 273C379 269 394 258 409.2 256C424.3 254 439.7 261 454.8 263C470 265 485 262 492.5 260.5L500 259L500 179L492.5 180C485 181 470 183 454.8 187.5C439.7 192 424.3 199 409.2 210C394 221 379 236 363.8 232C348.7 228 333.3 205 318.2 194C303 183 288 184 272.8 191.5C257.7 199 242.3 213 227.2 215.5C212 218 197 209 181.8 204C166.7 199 151.3 198 136.2 195C121 192 106 187 90.8 183C75.7 179 60.3 176 45.2 183C30 190 15 207 7.5 215.5L0 224Z" fill="#8c80fb"></path><path d="M0 301L7.5 301C15 301 30 301 45.2 301C60.3 301 75.7 301 90.8 301C106 301 121 301 136.2 301C151.3 301 166.7 301 181.8 301C197 301 212 301 227.2 301C242.3 301 257.7 301 272.8 301C288 301 303 301 318.2 301C333.3 301 348.7 301 363.8 301C379 301 394 301 409.2 301C424.3 301 439.7 301 454.8 301C470 301 485 301 492.5 301L500 301L500 257L492.5 258.5C485 260 470 263 454.8 261C439.7 259 424.3 252 409.2 254C394 256 379 267 363.8 271C348.7 275 333.3 272 318.2 266C303 260 288 251 272.8 250C257.7 249 242.3 256 227.2 260C212 264 197 265 181.8 265.5C166.7 266 151.3 266 136.2 262C121 258 106 250 90.8 245C75.7 240 60.3 238 45.2 243C30 248 15 260 7.5 266L0 272Z" fill="#a297fd"></path></svg>